 <svg xmlns="http://www.w3.org/2000/svg" width="24" height="24">
  <path fill="none" d="M0 0h24v24H0z"/>
  <path d="M17.4.9899998c-2.088 0-4.092.972-5.4 2.508-1.308-1.536-3.3119997-2.508-5.3999997-2.508-3.6960001 0-6.60000017 2.904-6.60000017 6.6000001C1.3e-7 12.126 4.0800003 15.822 10.26 21.438L12 23.01l1.74-1.584C19.92 15.822 24 12.126 24 7.5899999 24 3.8939998 21.096.9899998 17.4.9899998zM12.12 19.65l-.12.12-.12-.12c-5.7119997-5.172-9.4799998-8.592-9.4799998-12.0600001 0-2.4000001 1.8000001-4.2000001 4.2000001-4.2000001 1.848 0 3.6479997 1.188 4.2839997 2.8320001h2.244c.624-1.6440001 2.424-2.8320001 4.272-2.8320001 2.4 0 4.2 1.8 4.2 4.2000001C21.6 11.058 17.832 14.478 12.12 19.65z"/>
</svg>
