
<svg xmlns="http://www.w3.org/2000/svg" width="24" height="24">
  <path fill="none" stroke="#000" stroke-dashoffset="9.82234955" stroke-linecap="square" stroke-width="3.73947144" d="M6.9620902 3.0604219c-2.8125391.0000212-5.0924145 2.222657-5.092351 4.9634934.1676798 1.4633082.632521 2.5392827 1.4665856 3.4775807 2.116932 2.117144 4.2549772 4.254988 6.3791301 6.37913l.002.0019 2.2825821 2.282582 2.282582-2.282582.002-.0019c2.122694-2.122693 4.26408-4.264101 6.37913-6.37913.747677-1.016419 1.429931-2.367246 1.466512-3.4775807.000053-2.7408364-2.279823-4.9634722-5.092372-4.9634934-1.311128.00173-2.579997.4672517-3.483428 1.366813-.519399.5162236-1.036447 1.0344981-1.554257 1.5523181-.517809-.51782-1.034857-1.0361051-1.554263-1.5523181-.9034411-.8995613-2.1723003-1.3650473-3.4834279-1.366813z" paint-order="fill markers stroke"/>
</svg>
