<?xml version="1.0" encoding="UTF-8" standalone="no"?>
<!-- Created with Inkscape (http://www.inkscape.org/) -->

<svg
   xmlns:dc="http://purl.org/dc/elements/1.1/"
   xmlns:cc="http://creativecommons.org/ns#"
   xmlns:rdf="http://www.w3.org/1999/02/22-rdf-syntax-ns#"
   xmlns:svg="http://www.w3.org/2000/svg"
   xmlns="http://www.w3.org/2000/svg"
   xmlns:sodipodi="http://sodipodi.sourceforge.net/DTD/sodipodi-0.dtd"
   xmlns:inkscape="http://www.inkscape.org/namespaces/inkscape"
   width="744.09448819"
   height="1052.3622047"
   id="svg6299"
   version="1.1"
   inkscape:version="0.48.5 r10040"
   sodipodi:docname="icon.svg">
  <defs
     id="defs6301" />
  <sodipodi:namedview
     id="base"
     pagecolor="#ffffff"
     bordercolor="#666666"
     borderopacity="1.0"
     inkscape:pageopacity="0.0"
     inkscape:pageshadow="2"
     inkscape:zoom="0.49497475"
     inkscape:cx="724.85047"
     inkscape:cy="542.51892"
     inkscape:document-units="px"
     inkscape:current-layer="layer1"
     showgrid="false"
     showguides="true"
     inkscape:guide-bbox="true"
     inkscape:window-width="1895"
     inkscape:window-height="1035"
     inkscape:window-x="25"
     inkscape:window-y="0"
     inkscape:window-maximized="1" />
  <metadata
     id="metadata6304">
    <rdf:RDF>
      <cc:Work
         rdf:about="">
        <dc:format>image/svg+xml</dc:format>
        <dc:type
           rdf:resource="http://purl.org/dc/dcmitype/StillImage" />
        <dc:title></dc:title>
      </cc:Work>
    </rdf:RDF>
  </metadata>
  <g
     inkscape:label="Layer 1"
     inkscape:groupmode="layer"
     id="layer1">
    <g
       style="display:none"
       id="Header_x2F_BG"
       display="none"
       transform="matrix(23.475894,0,0,23.475894,74.873118,226.17923)">
      <rect
         style="fill:#f1f1f2;display:inline"
         x="-314"
         y="-358"
         display="inline"
         width="520"
         height="520"
         id="rect6310" />
    </g>
    <g
       style="display:none"
       id="Rounded"
       display="none"
       transform="matrix(23.475894,0,0,23.475894,74.873118,226.17923)">
      <g
         style="display:inline"
         id="ui_x5F_spec_x5F_header_copy_5"
         display="inline" />
      <path
         style="display:inline"
         inkscape:connector-curvature="0"
         display="inline"
         d="m 13.35,20.13 c -0.76,0.69 -1.93,0.69 -2.69,-0.01 l -0.11,-0.1 C 5.3,15.27 1.87,12.16 2,8.28 2.06,6.58 2.93,4.95 4.34,3.99 c 2.64,-1.8 5.9,-0.96 7.66,1.1 1.76,-2.06 5.02,-2.91 7.66,-1.1 1.41,0.96 2.28,2.59 2.34,4.29 0.14,3.88 -3.3,6.99 -8.55,11.76 l -0.1,0.09 z"
         id="path6318" />
    </g>
    <g
       style="display:none"
       id="Sharp"
       display="none"
       transform="matrix(23.475894,0,0,23.475894,74.873118,226.17923)">
      <g
         style="display:inline"
         id="ui_x5F_spec_x5F_header_copy_4"
         display="inline" />
      <path
         style="display:inline"
         inkscape:connector-curvature="0"
         display="inline"
         d="M 12,21.35 10.55,20.03 C 5.4,15.36 2,12.28 2,8.5 2,5.42 4.42,3 7.5,3 9.24,3 10.91,3.81 12,5.09 13.09,3.81 14.76,3 16.5,3 19.58,3 22,5.42 22,8.5 c 0,3.78 -3.4,6.86 -8.55,11.54 L 12,21.35 z"
         id="path6322" />
    </g>
    <g
       id="g6907"
       transform="translate(585.88847,234.35539)"
       inkscape:export-filename="/exec/vscode-favorite-items/icons/favorites.png"
       inkscape:export-xdpi="20.950001"
       inkscape:export-ydpi="20.950001">
      <rect
         y="-304.54532"
         x="276.58258"
         height="1100"
         width="1100"
         id="rect6905"
         style="fill:none;stroke:none" />
      <g
         style="fill:#ff00ff;fill-opacity:1"
         transform="matrix(50,0,0,50,226.58258,-363.29533)"
         id="Outline">
        <g
           style="fill:#ff00ff;fill-opacity:1"
           id="ui_x5F_spec_x5F_header" />
        <path
           style="fill:#ff00ff;fill-opacity:1"
           id="path6326"
           d="M 12,21.35 10.55,20.03 C 5.4,15.36 2,12.28 2,8.5 2,5.42 4.42,3 7.5,3 9.24,3 10.91,3.81 12,5.09 13.09,3.81 14.76,3 16.5,3 19.58,3 22,5.42 22,8.5 c 0,3.78 -3.4,6.86 -8.55,11.54 L 12,21.35 z"
           inkscape:connector-curvature="0" />
      </g>
    </g>
    <g
       style="display:none"
       id="Duotone"
       display="none"
       transform="matrix(23.475894,0,0,23.475894,74.873118,226.17923)">
      <g
         style="display:inline"
         id="ui_x5F_spec_x5F_header_copy_2"
         display="inline" />
      <g
         style="display:inline"
         display="inline"
         id="g6330">
        <path
           style="opacity:0.3"
           inkscape:connector-curvature="0"
           d="M 16.5,5 C 14.96,5 13.46,5.99 12.94,7.36 H 11.07 C 10.54,5.99 9.04,5 7.5,5 5.5,5 4,6.5 4,8.5 c 0,2.89 3.14,5.74 7.9,10.05 l 0.1,0.1 0.1,-0.1 C 16.86,14.24 20,11.39 20,8.5 20,6.5 18.5,5 16.5,5 z"
           id="path6332" />
        <path
           inkscape:connector-curvature="0"
           d="M 16.5,3 C 14.76,3 13.09,3.81 12,5.09 10.91,3.81 9.24,3 7.5,3 4.42,3 2,5.42 2,8.5 c 0,3.78 3.4,6.86 8.55,11.54 L 12,21.35 13.45,20.03 C 18.6,15.36 22,12.28 22,8.5 22,5.42 19.58,3 16.5,3 z m -4.4,15.55 -0.1,0.1 -0.1,-0.1 C 7.14,14.24 4,11.39 4,8.5 4,6.5 5.5,5 7.5,5 c 1.54,0 3.04,0.99 3.57,2.36 h 1.87 C 13.46,5.99 14.96,5 16.5,5 c 2,0 3.5,1.5 3.5,3.5 0,2.89 -3.14,5.74 -7.9,10.05 z"
           id="path6334" />
      </g>
    </g>
    <g
       style="display:none"
       id="Fill"
       display="none"
       transform="matrix(23.475894,0,0,23.475894,74.873118,226.17923)">
      <g
         style="display:inline"
         id="ui_x5F_spec_x5F_header_copy"
         display="inline" />
      <path
         style="display:inline"
         inkscape:connector-curvature="0"
         display="inline"
         d="M 12,21.35 10.55,20.03 C 5.4,15.36 2,12.28 2,8.5 2,5.42 4.42,3 7.5,3 9.24,3 10.91,3.81 12,5.09 13.09,3.81 14.76,3 16.5,3 19.58,3 22,5.42 22,8.5 c 0,3.78 -3.4,6.86 -8.55,11.54 L 12,21.35 z"
         id="path6338" />
    </g>
    <g
       style="display:none"
       id="nyt_x5F_exporter_x5F_info"
       display="none"
       transform="matrix(23.475894,0,0,23.475894,74.873118,226.17923)" />
  </g>
</svg>
