<svg version="1.1" id="_x31_0" xmlns="http://www.w3.org/2000/svg" xmlns:xlink="http://www.w3.org/1999/xlink" x="0px" y="0px" viewBox="0 0 512 512" style="width: 256px; height: 256px; opacity: 1;" xml:space="preserve">
<g>
	<path class="st0" d="M225.645,129.496c15.214,0.086,29.523,6.157,42.578,18.298l1.418,1.332l40.5,43.746h117.774V75.836
		l-212.332-0.25l-47.91-51.73c-9.981-9.153-18.797-11.562-25.699-11.645L1.578,12.043H0.418L0.332,75.254v6.484L0,349.332
		c0,8.734,6.988,15.887,15.718,15.887l35.165,0.082V231.98v-6.488v-63.294v-32.867H85.25L225.645,129.496z" style="fill: rgb(0,0,0);"></path>
	<path class="st0" d="M427.914,225.824H299.246l-47.902-51.731c-9.985-9.152-18.715-11.562-25.699-11.644L85.25,162.281h-1.082
		L84,225.492v6.488L83.836,365.3l-0.168,118.27c0,8.734,7.07,15.887,15.801,15.887l396.313,0.5c8.734,0,16.218-7.07,16.218-15.805
		V225.824H427.914z" style="fill: rgb(0,0,0);"></path>
</g>
</svg>
